<?xml version="1.0" standalone="no"?>
<!DOCTYPE svg PUBLIC "-//W3C//DTD SVG 20010904//EN"
 "http://www.w3.org/TR/2001/REC-SVG-20010904/DTD/svg10.dtd">
<svg version="1.0" xmlns="http://www.w3.org/2000/svg"
 width="3000.000000pt" height="2000.000000pt" viewBox="0 0 3000.000000 2000.000000"
 preserveAspectRatio="xMidYMid meet">

<g transform="translate(0.000000,2000.000000) scale(0.100000,-0.100000)"
fill="#000000" stroke="none">
<path d="M11179 16562 c-201 -54 -349 -255 -432 -587 -59 -235 -117 -584 -197
-1192 -16 -128 -44 -338 -61 -465 -140 -1074 -242 -1591 -377 -1928 -66 -165
-107 -219 -224 -297 -183 -122 -301 -250 -348 -380 -18 -51 -22 -77 -18 -140
5 -86 26 -138 84 -210 36 -43 146 -122 207 -148 l36 -15 -6 -68 c-13 -161 71
-295 238 -375 l66 -32 44 -130 c81 -242 235 -520 405 -731 212 -263 545 -510
857 -633 31 -13 57 -29 57 -35 0 -6 -14 -47 -31 -91 -170 -437 -346 -969 -468
-1415 -288 -1057 -358 -1854 -210 -2385 112 -398 355 -694 737 -899 l77 -41 2
-55 c8 -175 44 -372 92 -497 117 -303 351 -427 656 -348 180 47 447 219 702
452 l92 84 93 -10 c280 -31 746 -59 1398 -83 472 -17 1786 -17 2108 1 l254 14
115 -122 c263 -278 504 -420 710 -421 210 0 369 114 488 351 40 79 98 248 115
337 13 62 13 63 64 84 231 99 431 263 543 448 34 56 108 211 123 257 12 39 19
45 94 81 113 54 190 122 288 254 380 511 834 1498 943 2053 32 166 38 239 25
320 -20 124 -75 211 -163 257 -64 33 -192 37 -277 8 -206 -69 -455 -247 -783
-560 -84 -80 -107 -97 -111 -83 -3 10 -12 56 -21 103 -28 152 -75 361 -125
555 -28 105 -53 201 -56 215 -25 97 -156 521 -214 695 -95 278 -125 362 -274
743 l-56 142 146 143 c249 242 438 488 565 736 l54 104 100 32 c138 43 219 87
285 154 83 83 111 186 76 283 l-13 38 84 45 c125 68 200 121 278 200 292 290
185 616 -272 838 -108 52 -193 129 -267 241 -167 252 -293 634 -416 1256 -57
291 -77 401 -170 975 -85 521 -138 803 -191 1010 -118 460 -249 683 -444 757
-78 30 -236 31 -335 4 -220 -62 -372 -186 -703 -571 -287 -335 -407 -424 -570
-425 -61 0 -257 27 -361 49 -228 51 -917 130 -1126 131 l-75 0 -59 68 c-33 37
-94 112 -137 167 -82 106 -121 135 -185 135 -107 0 -192 -106 -169 -210 8 -37
56 -109 144 -215 106 -128 101 -115 43 -115 l-51 0 -77 88 c-42 48 -100 119
-129 158 -60 80 -99 104 -173 104 -38 0 -58 -6 -89 -29 -94 -68 -97 -183 -7
-290 14 -18 25 -33 23 -35 -2 -2 -20 -6 -39 -10 -33 -6 -39 -2 -97 56 -69 72
-203 235 -203 248 0 5 -20 21 -43 35 -61 35 -130 35 -183 -1 -49 -33 -61 -49
-75 -98 -10 -37 -5 -78 15 -127 15 -36 -274 -52 -409 -24 -262 56 -483 181
-982 557 -147 111 -315 233 -373 271 -123 81 -280 160 -365 182 -94 25 -209
28 -286 7z m887 -3481 c65 -21 391 -126 574 -186 107 -35 323 -105 480 -155
603 -194 631 -204 627 -221 -10 -39 -129 -199 -206 -279 -259 -265 -576 -336
-939 -209 -346 121 -534 377 -571 777 -8 83 -5 282 4 282 1 0 15 -4 31 -9z
m5308 -28 c10 -66 6 -225 -9 -326 -54 -358 -245 -590 -580 -702 -438 -148
-826 5 -1090 429 -26 42 -46 78 -44 80 2 1 40 14 84 28 163 52 656 212 850
275 110 36 277 90 370 120 94 30 222 72 285 93 63 21 118 39 121 39 4 1 9 -16
13 -36z m-5660 -1449 c20 -19 21 -53 3 -79 -8 -11 -28 -46 -46 -79 -107 -198
-188 -329 -206 -336 -11 -4 -30 -3 -43 3 -37 17 -37 49 -1 114 132 239 213
379 223 385 19 13 54 9 70 -8z m5664 0 c13 -9 22 -26 22 -40 0 -14 -31 -80
-69 -147 -37 -67 -78 -140 -91 -162 -73 -132 -83 -145 -105 -151 -13 -3 -32
-1 -43 5 -42 22 -37 45 44 188 42 76 97 174 121 218 60 107 77 120 121 89z
m-4999 -65 c14 -25 11 -32 -59 -160 -174 -319 -193 -344 -240 -319 -36 19 -35
54 3 122 140 255 209 373 220 381 23 14 61 2 76 -24z m5659 15 c12 -8 22 -25
22 -38 0 -21 -50 -117 -192 -366 -48 -85 -57 -95 -85 -98 -25 -3 -35 2 -49 23
-21 32 -25 23 122 282 126 223 134 231 182 197z m-6028 -63 c5 -11 10 -28 10
-37 0 -17 -189 -364 -232 -425 -9 -15 -27 -29 -38 -32 -23 -6 -70 27 -70 49 0
8 31 69 69 137 37 67 78 140 91 162 59 106 74 131 88 148 20 23 69 22 82 -2z
m5662 2 c35 -41 40 -28 -111 -298 -109 -194 -117 -205 -149 -205 -15 0 -33 5
-40 12 -14 14 -16 70 -3 84 4 5 22 34 38 64 93 172 178 318 196 338 25 26 49
28 69 5z m-2372 -412 c0 -44 -38 -231 -59 -293 -10 -29 -31 -78 -46 -108 -28
-55 -106 -163 -113 -156 -2 2 -10 116 -19 252 -12 207 -13 249 -1 253 134 47
225 78 231 80 4 0 7 -12 7 -28z m-1047 -27 l107 -29 0 -267 c0 -148 -4 -268
-9 -268 -16 0 -99 105 -135 171 -19 35 -46 100 -61 143 -22 70 -32 118 -50
255 -5 38 -20 39 148 -5z m571 -124 c16 -175 27 -523 18 -532 -13 -13 -168
-23 -216 -14 l-36 7 0 302 0 302 114 0 114 0 6 -65z"/>
</g>
</svg>
