<?xml version="1.0" standalone="no"?>
<!DOCTYPE svg PUBLIC "-//W3C//DTD SVG 20010904//EN"
 "http://www.w3.org/TR/2001/REC-SVG-20010904/DTD/svg10.dtd">
<svg version="1.0" xmlns="http://www.w3.org/2000/svg"
 width="720.000000pt" height="720.000000pt" viewBox="0 0 720.000000 720.000000"
 preserveAspectRatio="xMidYMid meet">

<g transform="translate(0.000000,720.000000) scale(0.100000,-0.100000)"
fill="#000000" stroke="none">
<path d="M3670 5974 c-346 -39 -522 -87 -775 -208 -428 -205 -766 -543 -971
-971 -145 -302 -208 -580 -208 -915 0 -335 63 -613 208 -915 205 -428 543
-766 971 -971 302 -145 580 -208 915 -208 335 0 613 63 915 208 428 205 766
543 971 971 145 302 208 580 208 915 0 335 -63 613 -208 915 -300 625 -882
1052 -1581 1160 -99 15 -377 27 -445 19z m435 -78 c199 -32 333 -69 505 -143
481 -204 869 -592 1073 -1073 114 -267 161 -502 161 -800 0 -298 -47 -533
-161 -800 -204 -481 -592 -869 -1073 -1073 -267 -114 -502 -161 -800 -161
-298 0 -533 47 -800 161 -481 204 -869 592 -1073 1073 -114 267 -161 502 -161
800 0 298 47 533 161 800 204 481 592 869 1073 1073 208 89 397 135 655 161
74 8 349 -4 440 -18z"/>
<path d="M3900 5852 c0 -6 4 -13 9 -17 6 -3 17 -40 27 -82 27 -122 9 -232 -67
-398 -44 -99 -78 -313 -59 -381 17 -61 33 -68 25 -11 -8 54 12 124 58 206 26
46 32 52 38 35 4 -10 8 -53 8 -94 2 -205 71 -394 194 -530 101 -111 308 -250
477 -320 40 -17 87 -41 104 -54 17 -13 45 -30 61 -39 44 -22 157 -137 218
-219 106 -146 223 -380 237 -475 10 -74 0 -176 -25 -253 -8 -25 -28 -90 -44
-145 -89 -310 -282 -507 -531 -543 -185 -27 -182 -28 -127 41 39 49 70 129
121 317 21 74 41 145 46 156 5 12 12 43 15 70 6 37 24 73 75 149 64 95 120
194 120 213 0 5 -24 21 -54 36 -66 33 -84 30 -144 -28 l-44 -41 7 35 c8 45
-25 138 -66 184 -42 48 -139 89 -189 81 -51 -9 -95 -39 -133 -92 -33 -46 -36
-79 -22 -205 6 -51 5 -68 -4 -68 -7 0 -46 28 -86 62 -140 120 -218 171 -299
195 -40 12 -51 12 -61 1 -7 -7 -36 -40 -65 -72 -66 -74 -120 -115 -240 -184
-118 -67 -236 -106 -409 -135 -96 -16 -137 -27 -144 -39 -18 -27 6 -179 53
-348 24 -85 47 -156 52 -158 4 -2 8 -10 8 -18 0 -27 120 -267 175 -349 77
-116 127 -158 228 -189 45 -14 100 -28 122 -30 22 -3 74 -9 115 -15 41 -6 115
-11 163 -11 84 0 93 2 166 40 42 22 106 65 143 95 36 30 70 55 76 55 5 0 17 9
28 21 18 20 26 21 117 16 53 -3 125 -1 160 3 78 11 222 52 307 87 271 111 471
429 525 835 18 138 18 138 -4 245 -31 152 -56 226 -107 312 -24 42 -44 80 -44
84 0 12 -126 195 -159 231 -67 73 -277 192 -471 267 -83 32 -220 124 -313 210
-109 101 -147 163 -214 348 -32 90 -59 233 -47 252 3 5 24 -6 47 -25 23 -18
58 -41 77 -51 19 -10 44 -25 55 -35 11 -9 28 -20 37 -23 26 -9 12 16 -22 42
-16 12 -52 54 -78 94 -55 80 -84 174 -101 329 -12 103 -33 186 -65 259 -23 52
-56 94 -56 71z m70 -2497 c0 -2 -18 -22 -40 -44 -32 -32 -40 -47 -40 -76 0
-60 -85 -130 -135 -112 -36 15 -61 141 -36 184 8 15 10 10 11 -27 0 -57 31
-110 63 -110 36 0 57 21 63 65 9 66 25 95 58 110 32 14 56 18 56 10z m-360
-228 c29 -55 22 -90 -23 -114 -37 -20 -238 -55 -250 -44 -12 12 70 48 142 63
102 21 134 60 95 116 -13 18 -13 22 -1 22 8 0 25 -19 37 -43z m30 -262 c9 -8
21 -15 27 -15 13 0 88 -83 138 -155 55 -78 96 -115 168 -150 72 -35 93 -64 83
-118 -9 -48 -46 -90 -102 -118 -40 -19 -57 -21 -137 -17 -136 8 -243 55 -339
150 -55 55 -80 101 -102 185 -23 88 -21 136 9 183 29 45 62 70 108 79 42 9
125 -4 147 -24z"/>
<path d="M3486 2836 c-40 -15 -46 -21 -71 -68 -13 -23 -13 -36 -1 -101 26
-135 65 -189 210 -287 32 -22 66 -40 75 -40 9 0 34 -7 56 -15 55 -19 112 -18
160 4 42 19 105 82 105 105 0 17 -66 76 -84 76 -24 0 -109 85 -171 171 -67 93
-84 111 -135 138 -51 28 -99 33 -144 17z"/>
<path d="M2840 4983 c0 -6 16 -14 36 -17 38 -8 86 -32 146 -75 44 -31 93 -116
109 -190 7 -32 19 -57 32 -66 12 -8 19 -15 17 -16 -3 0 -14 -2 -25 -3 -93 -13
-122 -21 -191 -52 -93 -43 -209 -118 -322 -209 -24 -19 -47 -35 -52 -35 -5 0
-32 21 -62 46 -69 59 -111 81 -233 117 -133 39 -142 41 -243 32 -72 -6 -83 -9
-62 -17 85 -34 118 -56 188 -127 163 -165 386 -559 442 -781 68 -274 87 -294
279 -307 148 -10 339 34 491 113 130 67 408 294 511 417 59 70 62 101 24 211
-26 74 -119 257 -156 305 -81 105 -99 130 -99 135 0 11 -111 151 -163 205
-145 151 -270 228 -459 285 -98 30 -208 45 -208 29z m773 -695 c97 -55 143
-159 103 -237 -20 -37 -81 -83 -114 -84 -88 -3 -112 3 -151 39 -31 28 -42 46
-50 87 -18 88 5 146 74 188 35 22 105 25 138 7z m-570 -322 c47 -20 65 -45 83
-120 27 -106 -1 -170 -92 -215 -71 -36 -117 -26 -176 38 -37 40 -49 63 -58
106 -6 31 -9 69 -5 86 7 31 65 95 100 109 32 14 113 11 148 -4z"/>
</g>
</svg>
